<?xml version="1.0" encoding="UTF-8"?><svg id="Layer_1" xmlns="http://www.w3.org/2000/svg" viewBox="0 0 20.75 20.75"><defs><style>.cls-1{fill:none;stroke:#fff;stroke-linecap:round;stroke-linejoin:round;stroke-width:.75px;}</style></defs><path class="cls-1" d="m17.38.38v4"/><path class="cls-1" d="m17.38,8.39h.01"/><path class="cls-1" d="m14.38,12.38v1.4c0,.33-.27.6-.6.6h-6.8c-.33,0-.6-.27-.6-.6v-6.8c0-.33.27-.6.6-.6h5.4"/><path class="cls-1" d="m18.38,12.38v5.4c0,.33-.27.6-.6.6H2.97c-.33,0-.6-.27-.6-.6V2.97c0-.33.27-.6.6-.6h9.4"/><path class="cls-1" d="m18.38,15.38h2"/><path class="cls-1" d="m15.38,18.38v2"/><path class="cls-1" d="m10.38,18.38v2"/><path class="cls-1" d="m5.38,18.38v2"/><path class="cls-1" d="m2.38,15.38H.38"/><path class="cls-1" d="m2.38,10.38H.38"/><path class="cls-1" d="m2.38,5.38H.38"/><path class="cls-1" d="m10.38,2.38V.38"/><path class="cls-1" d="m5.38,2.38V.38"/></svg>